<svg width="40" height="40" viewBox="0 0 24 24" fill="none"
     xmlns="http://www.w3.org/2000/svg">
  
  <!-- Shadow / light background for consistency -->
  <path opacity="0.15" fill-rule="evenodd" clip-rule="evenodd"
        d="M4 7h3a1 1 0 0 0 1 -1v-1a2 2 0 0 1 4 0v1a1 1 0 0 0 1 1h3a1 1 0 0 1 1 1v3a1 1 0 0 0 1 1h1a2 2 0 0 1 0 4h-1a1 1 0 0 0 -1 1v3a1 1 0 0 1 -1 1h-3a1 1 0 0 1 -1 -1v-1a2 2 0 0 0 -4 0v1a1 1 0 0 1 -1 1h-3a1 1 0 0 1 -1 -1v-3a1 1 0 0 1 1 -1h1a2 2 0 0 0 0 -4h-1a1 1 0 0 1 -1 -1v-3a1 1 0 0 1 1 -1z"
        fill="url(#puzzle_bg)"/>

  <!-- Main puzzle stroke -->
  <path d="M4 7h3a1 1 0 0 0 1 -1v-1a2 2 0 0 1 4 0v1a1 1 0 0 0 1 1h3a1 1 0 0 1 1 1v3a1 1 0 0 0 1 1h1a2 2 0 0 1 0 4h-1a1 1 0 0 0 -1 1v3a1 1 0 0 1 -1 1h-3a1 1 0 0 1 -1 -1v-1a2 2 0 0 0 -4 0v1a1 1 0 0 1 -1 1h-3a1 1 0 0 1 -1 -1v-3a1 1 0 0 1 1 -1h1a2 2 0 0 0 0 -4h-1a1 1 0 0 1 -1 -1v-3a1 1 0 0 1 1 -1"
        stroke="url(#puzzle_stroke)" stroke-width="1.8" stroke-linecap="round" stroke-linejoin="round"/>

  <defs>
    <!-- Background gradient -->
    <linearGradient id="puzzle_bg" x1="2" y1="2" x2="30" y2="18" gradientUnits="userSpaceOnUse">
      <stop offset="0.25" stop-color="#FFDB6E"/>
      <stop offset="1" stop-color="#FFBC5E"/>
    </linearGradient>

    <!-- Stroke gradient matching your theme -->
    <linearGradient id="puzzle_stroke" x1="2" y1="0" x2="30" y2="17" gradientUnits="userSpaceOnUse">
      <stop offset="0.25" stop-color="#FFDB6E"/>
      <stop offset="1" stop-color="#FFBC5E"/>
    </linearGradient>
  </defs>
</svg>
